<?xml version="1.0" standalone="no"?>
<!DOCTYPE svg PUBLIC "-//W3C//DTD SVG 20010904//EN"
 "http://www.w3.org/TR/2001/REC-SVG-20010904/DTD/svg10.dtd">
<svg version="1.0" xmlns="http://www.w3.org/2000/svg"
 width="500.000000pt" height="500.000000pt" viewBox="0 0 500.000000 500.000000"
 preserveAspectRatio="xMidYMid meet">

<g transform="translate(0.000000,500.000000) scale(0.100000,-0.100000)"
fill="#000000" stroke="none">
<path d="M2167 4426 c-15 -7 -44 -28 -65 -49 l-37 -36 -72 36 c-166 82 -370
39 -486 -102 -22 -27 -44 -54 -48 -59 -5 -5 -25 6 -46 24 -85 75 -212 107
-337 85 -180 -32 -256 -56 -291 -91 -33 -33 -55 -85 -55 -132 0 -34 26 -89 49
-104 20 -12 21 -22 21 -142 0 -125 -1 -131 -27 -169 -31 -45 -42 -103 -31
-167 6 -34 18 -54 48 -83 l40 -38 -29 -42 c-32 -48 -120 -237 -156 -337 -79
-220 -107 -385 -108 -635 -1 -255 23 -393 105 -603 45 -117 46 -126 29 -222
-16 -91 -18 -96 -45 -108 -57 -26 -73 -148 -37 -277 25 -87 62 -122 172 -165
142 -55 267 -33 314 53 11 20 22 37 25 37 3 0 21 -14 40 -31 19 -17 54 -44 78
-60 40 -29 52 -51 33 -63 -4 -3 -14 -25 -21 -50 -10 -38 -9 -55 9 -126 27
-106 75 -210 115 -249 56 -54 119 -75 227 -75 75 0 104 4 136 20 40 20 41 20
64 1 20 -16 37 -18 111 -15 79 3 89 5 116 31 27 26 30 27 43 11 38 -46 175
-61 221 -24 25 19 26 19 43 0 27 -30 156 -29 185 0 l21 21 29 -21 c34 -24 68
-19 100 15 l22 24 25 -30 c24 -28 29 -29 103 -29 61 0 83 4 101 19 23 18 24
18 49 0 22 -16 45 -19 173 -20 132 0 152 2 193 21 49 24 77 57 119 138 46 88
44 177 -5 230 l-20 21 33 16 c17 8 52 31 77 50 25 20 70 52 100 73 95 64 195
148 236 199 158 191 311 491 369 720 76 305 71 670 -14 974 -42 148 -166 427
-217 488 l-26 32 40 38 c78 71 100 167 66 282 -9 30 -16 68 -16 84 0 19 -2 24
-7 14 -4 -12 -12 -14 -27 -9 -17 7 -22 20 -27 66 -5 50 -3 60 14 72 53 37 73
138 44 223 -30 86 -61 107 -179 119 -46 5 -134 21 -196 35 -86 21 -128 26
-177 22 -56 -4 -70 -1 -109 20 -34 19 -53 24 -79 19 -20 -4 -60 0 -97 10 -122
31 -235 3 -357 -89 l-64 -48 -41 39 c-118 113 -177 132 -398 131 -105 0 -173
-5 -191 -13z m416 -72 c63 -22 149 -100 175 -161 11 -27 24 -76 27 -109 6 -51
4 -69 -14 -109 -24 -55 -79 -107 -155 -147 -28 -15 -45 -28 -38 -28 6 0 12 -4
12 -9 0 -9 -38 -26 -84 -36 -25 -5 -28 -4 -23 14 7 27 -29 29 -37 3 -3 -10
-28 -34 -56 -55 -58 -43 -72 -78 -44 -108 32 -35 56 -42 165 -50 58 -4 114
-11 125 -17 10 -5 53 -25 94 -44 138 -65 266 -180 360 -325 64 -97 100 -190
112 -295 l11 -88 181 1 c100 1 186 0 191 -1 6 -1 18 -2 27 -1 15 1 15 5 6 33
-10 28 -9 33 13 51 18 14 32 17 62 13 47 -8 111 -39 153 -76 25 -22 38 -26 70
-22 32 4 35 6 19 13 -12 5 1 6 30 2 54 -8 92 -7 142 2 31 5 31 5 42 -44 19
-90 41 -293 41 -381 0 -47 -7 -137 -15 -200 -14 -114 -60 -317 -75 -333 -4 -4
-13 27 -20 70 -16 101 -38 157 -87 224 -48 64 -100 103 -168 124 -86 26 -115
21 -360 -60 -55 -18 -127 -41 -161 -50 -55 -15 -63 -21 -78 -55 -23 -52 -111
-140 -164 -164 -23 -10 -42 -23 -42 -27 0 -4 19 -20 43 -36 133 -89 164 -337
57 -451 -11 -12 -18 -27 -15 -32 4 -6 1 -9 -7 -8 -7 2 -12 -4 -10 -12 2 -8 0
-12 -4 -7 -8 8 -44 -21 -44 -36 0 -6 9 -2 19 7 10 10 22 13 25 8 3 -5 -7 -20
-22 -33 -38 -35 -67 -56 -60 -44 13 21 -6 32 -32 17 l-25 -14 29 7 c28 6 29 5
15 -15 -8 -12 -41 -33 -74 -47 -53 -22 -69 -25 -130 -19 -38 4 -84 8 -101 10
-31 2 -104 32 -104 42 0 3 4 3 9 0 5 -4 11 0 14 6 6 19 -62 63 -76 49 -12 -12
-47 3 -47 20 0 6 7 3 16 -5 19 -20 40 -10 23 10 -15 19 -54 41 -45 26 3 -6 2
-13 -3 -17 -12 -7 -54 64 -76 130 -63 190 44 405 202 405 62 0 209 27 300 56
81 25 177 76 221 117 76 71 100 216 50 312 -28 55 -51 78 -115 120 -38 24 -41
29 -32 52 5 13 9 45 9 71 -1 91 -45 168 -124 219 -45 28 -45 29 -46 84 0 31
-7 72 -15 92 -15 36 -98 117 -120 117 -7 0 -15 22 -19 57 -16 132 -96 226
-273 315 -120 60 -163 101 -163 153 0 54 15 81 65 115 52 36 55 57 11 78 -23
12 -36 12 -72 2 -125 -35 -242 -186 -252 -322 -7 -92 14 -162 71 -237 26 -35
45 -67 40 -71 -4 -4 -24 -13 -43 -20 -84 -32 -169 -118 -187 -188 -6 -26 1
-119 11 -142 5 -12 -3 -19 -29 -29 -48 -17 -100 -64 -132 -119 -28 -48 -36
-121 -21 -190 7 -28 5 -34 -16 -42 -40 -15 -96 -71 -122 -121 -18 -37 -24 -64
-24 -114 0 -121 68 -215 201 -278 87 -41 139 -54 273 -67 149 -15 171 -23 211
-78 49 -67 75 -141 75 -215 0 -86 -38 -206 -60 -192 -6 3 -7 0 -5 -7 3 -8 -5
-25 -17 -38 -13 -14 -23 -28 -23 -33 0 -14 -75 -74 -129 -103 -42 -23 -67 -29
-137 -32 -107 -5 -195 16 -195 47 0 19 2 19 18 4 10 -9 18 -12 18 -6 0 5 -21
21 -47 36 -50 27 -122 91 -161 141 -12 16 -22 24 -22 18 0 -6 5 -14 10 -17 6
-3 10 -11 10 -17 0 -28 -31 19 -46 70 -25 88 -16 221 20 296 32 66 85 123 127
138 39 13 36 24 -8 45 -21 9 -62 41 -90 70 -83 84 -215 148 -500 243 -167 55
-222 61 -289 31 -90 -41 -130 -155 -85 -242 19 -35 21 -51 15 -93 -12 -94 -19
-98 -42 -21 -49 170 -72 318 -72 462 0 74 33 342 46 377 8 22 23 24 94 15 36
-4 68 -5 71 -1 4 4 14 28 24 54 17 47 43 82 66 90 8 3 4 18 -14 49 -34 57 -35
87 -4 98 54 21 158 -20 212 -83 20 -22 49 -56 65 -75 17 -19 35 -53 41 -75 16
-65 18 -68 35 -62 9 3 90 6 180 6 l164 0 0 33 c0 126 53 272 153 416 37 55
162 178 188 186 16 5 19 17 19 68 0 100 42 190 126 274 30 30 54 63 54 73 0
10 15 30 33 44 l32 25 -1 172 -1 172 -26 19 c-42 31 -31 79 23 102 31 13 333
-2 383 -20z m-708 -5 c78 -14 122 -38 173 -92 57 -63 75 -108 75 -192 1 -78
-13 -112 -62 -159 -17 -16 -28 -34 -24 -39 3 -6 1 -7 -5 -3 -7 4 -12 1 -12 -8
0 -8 -5 -18 -12 -22 -7 -5 -9 -2 -4 7 4 8 1 6 -7 -3 -8 -10 -18 -14 -23 -10
-4 4 -2 -1 5 -11 12 -15 12 -17 -4 -11 -11 5 -16 3 -12 -2 13 -22 -122 -74
-194 -74 -48 0 -76 10 -58 21 8 5 0 13 -26 23 -31 13 -41 14 -54 4 -14 -12
-14 -11 -2 5 7 9 9 17 5 17 -5 0 -28 18 -52 40 -43 41 -58 50 -47 28 4 -7 -2
-2 -13 11 -29 35 -46 120 -38 182 21 158 153 281 322 298 6 1 37 -4 69 -10z
m1370 -25 c36 -19 43 -20 62 -7 32 22 62 7 84 -40 24 -54 24 -94 -1 -134 -26
-43 -63 -52 -98 -24 -78 62 -104 75 -153 75 -67 0 -100 -32 -106 -101 -9 -90
31 -174 91 -189 41 -10 91 -1 94 19 2 10 -3 17 -12 17 -83 0 -105 99 -26 120
40 11 184 -6 242 -29 45 -17 50 -88 8 -111 -15 -8 -20 -21 -20 -54 0 -82 -32
-98 -217 -113 -40 -3 -73 -10 -73 -15 0 -7 -4 -7 -12 0 -7 6 -45 26 -84 46
-53 27 -83 51 -120 96 -27 33 -52 60 -56 60 -13 0 -28 66 -28 127 0 114 73
219 181 262 72 28 185 26 244 -5z m410 -54 c154 -36 220 -48 254 -47 49 3 74
-35 79 -117 4 -60 2 -65 -21 -81 -21 -14 -29 -14 -46 -3 -14 9 -19 19 -15 33
4 16 3 17 -5 5 -10 -14 -16 -7 -12 14 3 17 -22 36 -48 35 -24 0 -24 -1 8 -13
19 -7 31 -15 25 -18 -11 -7 -74 19 -74 31 0 14 -73 22 -82 8 -4 -7 -8 -33 -8
-59 0 -37 4 -50 19 -58 35 -18 74 -12 98 18 l23 27 24 -27 c51 -57 42 -197
-14 -225 -20 -10 -28 -9 -42 4 -10 9 -18 23 -18 31 0 12 2 12 17 1 9 -8 7 0
-7 19 -16 22 -32 32 -49 32 -25 -1 -24 -1 7 -15 17 -8 32 -17 32 -20 0 -3 -9
-1 -19 5 -11 5 -29 10 -40 10 -18 0 -21 -6 -21 -49 0 -28 4 -53 10 -56 13 -8
117 -35 135 -35 8 0 30 14 49 31 59 51 96 18 96 -86 0 -56 -18 -114 -30 -95
-4 7 -15 7 -31 2 -14 -6 -37 -5 -57 0 -23 7 -38 6 -45 -1 -8 -8 -7 -11 3 -11
7 0 11 -2 9 -4 -2 -2 -26 1 -53 8 -46 12 -48 13 -22 20 15 4 32 4 38 0 7 -5 8
-2 3 5 -4 7 -16 10 -28 7 -11 -3 -27 -1 -36 4 -9 4 -61 20 -115 34 -71 19
-102 24 -111 16 -10 -8 -20 -4 -41 16 l-29 26 33 -22 c17 -12 32 -17 32 -11 0
5 -15 19 -34 31 -19 11 -37 26 -39 33 -6 16 12 49 35 65 16 12 18 30 18 199
l0 185 -30 34 c-34 40 -31 60 14 79 33 15 36 14 161 -15z m-2365 -31 c120 -52
184 -191 146 -320 -15 -53 -61 -117 -121 -168 -16 -14 -43 -39 -59 -56 -16
-16 -27 -25 -23 -18 5 8 1 8 -17 0 -13 -7 -22 -16 -19 -21 4 -5 1 -6 -5 -3
-12 8 -44 -2 -38 -12 10 -16 -13 -29 -94 -55 -47 -16 -103 -34 -125 -42 -53
-18 -62 -18 -96 7 -39 28 -39 66 1 104 l30 29 0 193 0 192 -29 16 c-40 20 -48
50 -24 84 27 36 52 46 183 75 134 29 213 28 290 -5z m1360 -413 c0 -3 -4 -8
-10 -11 -5 -3 -10 -1 -10 4 0 6 5 11 10 11 6 0 10 -2 10 -4z m-30 -26 c0 -5
-4 -10 -10 -10 -5 0 -10 5 -10 10 0 6 5 10 10 10 6 0 10 -4 10 -10z m470 -60
c13 -9 13 -10 0 -10 -8 0 -22 5 -30 10 -13 9 -13 10 0 10 8 0 22 -5 30 -10z
m-896 -62 c-4 -7 -20 -30 -36 -50 -16 -20 -35 -56 -43 -80 -9 -29 -13 -36 -14
-20 -1 28 31 94 66 133 28 30 39 38 27 17z m-669 -116 c-7 -7 -45 29 -45 41 0
6 11 0 25 -13 14 -13 23 -26 20 -28z m708 -47 c19 -24 63 -52 142 -90 117 -58
195 -116 220 -166 32 -60 15 -60 -45 -1 -46 46 -85 72 -165 112 -155 75 -206
127 -204 207 l1 38 11 -33 c7 -18 25 -48 40 -67z m1341 -80 c54 -17 103 -45
130 -74 10 -11 24 -18 30 -14 6 3 8 3 4 -2 -4 -4 2 -25 12 -46 11 -21 20 -46
20 -56 0 -10 7 -27 15 -37 18 -23 19 -59 4 -88 -19 -35 -70 -48 -190 -48 -105
0 -114 2 -146 26 -27 21 -33 32 -33 64 0 29 5 42 20 50 13 7 20 21 20 39 0 18
11 41 30 61 l30 32 -25 20 c-29 23 -32 44 -8 70 19 22 24 22 87 3z m-403 -5
c22 -12 26 -59 7 -78 -20 -20 -56 -14 -73 12 -18 27 -11 54 19 66 28 11 25 11
47 0z m143 -6 c20 -8 21 -48 1 -64 -21 -17 -50 -8 -53 18 -7 46 12 62 52 46z
m-1717 -26 c18 -14 16 -53 -3 -72 -31 -32 -94 -10 -94 32 0 10 7 28 16 41 13
18 22 21 43 16 14 -4 32 -11 38 -17z m-289 -70 c7 -7 12 -25 12 -40 0 -38 -41
-56 -76 -33 -43 28 -26 85 26 85 14 0 31 -5 38 -12z m2095 -97 c14 -2 7 -39
-9 -45 -27 -10 -142 -7 -150 5 -18 30 74 53 159 40z m-1093 -40 c0 -24 -24
-51 -77 -89 -23 -16 -40 -32 -36 -35 12 -13 -8 -57 -26 -57 -20 0 -35 25 -25
41 7 12 -7 11 -25 0 -11 -7 -12 -13 -4 -23 7 -8 7 -22 2 -36 -11 -30 -43 -25
-47 7 -4 23 -4 23 -38 -10 -19 -18 -34 -39 -34 -45 0 -7 -5 -16 -11 -20 -22
-13 -3 81 22 115 23 31 113 81 202 112 20 7 47 23 59 36 26 28 38 29 38 4z
m-41 -105 c16 -20 -4 -58 -27 -54 -21 4 -29 48 -10 59 18 12 24 11 37 -5z
m483 -87 c23 -29 29 -44 26 -75 l-3 -39 -23 38 c-28 45 -55 48 -97 11 -111
-97 -173 -132 -301 -174 l-72 -23 22 -36 c28 -49 29 -142 1 -190 -30 -51 -67
-74 -129 -79 -47 -4 -62 0 -101 22 -61 36 -79 73 -78 164 l1 72 -34 0 c-32 0
-33 -1 -22 -25 12 -27 -2 -55 -28 -55 -16 0 -29 43 -19 60 4 7 -4 5 -17 -4
-14 -9 -33 -32 -44 -51 -10 -19 -22 -35 -26 -35 -17 0 -7 59 15 90 39 57 67
72 160 80 47 5 95 14 107 20 15 8 44 10 84 6 34 -3 66 -6 71 -7 17 -1 127 30
185 53 122 49 224 126 251 190 15 37 34 33 71 -13z m792 35 c9 -3 16 -17 16
-30 l0 -24 -139 0 c-110 0 -141 3 -151 15 -7 8 -10 22 -6 30 4 12 29 15 135
15 71 0 136 -3 145 -6z m-2063 -50 c17 -21 0 -49 -32 -49 -18 0 -25 6 -27 24
-6 38 34 55 59 25z m1238 -227 c61 -48 72 -69 78 -150 5 -70 4 -73 -27 -110
-41 -48 -81 -69 -137 -69 -50 0 -83 18 -130 71 -96 106 -14 291 128 291 37 0
54 -6 88 -33z m184 -37 c35 -37 51 -90 27 -90 -5 0 -10 4 -10 10 0 21 -62 77
-99 90 -42 14 -51 24 -28 34 28 12 74 -6 110 -44z m105 -309 c55 -28 92 -72
99 -117 6 -42 3 -41 -40 18 -18 24 -50 48 -93 69 -48 23 -63 34 -53 40 22 14
47 11 87 -10z m-539 -26 c-13 -7 -69 -21 -124 -30 -248 -44 -378 -58 -470 -51
-64 6 -77 4 -67 -6 16 -16 15 -30 -2 -53 -14 -19 -15 -19 -35 -1 -23 21 -28
52 -8 59 6 3 0 6 -14 6 -20 1 -38 -11 -69 -46 l-41 -48 4 43 c6 53 42 107 81
124 23 9 49 8 130 -5 169 -27 216 -29 316 -14 52 9 130 18 172 22 43 4 90 10
105 14 37 11 52 1 22 -14z m-561 -117 c-2 -15 -10 -23 -23 -23 -13 0 -21 8
-23 23 -3 18 1 22 23 22 22 0 26 -4 23 -22z m-891 -63 c54 -20 134 -48 178
-62 148 -47 231 -102 291 -193 35 -52 49 -142 34 -210 -14 -64 -49 -140 -64
-140 -18 -1 -69 -47 -72 -64 -1 -9 2 -14 7 -10 5 3 7 10 4 15 -4 5 1 9 10 9 9
0 13 -5 10 -10 -10 -16 -86 -62 -92 -56 -4 3 -11 -1 -17 -10 -18 -24 -157 -31
-224 -11 -52 16 -53 16 -61 -6 -20 -53 -22 -86 -7 -116 26 -49 21 -98 -14
-133 -30 -29 -33 -30 -103 -26 -81 5 -199 44 -176 59 8 5 19 9 24 9 6 0 3 -5
-5 -10 -8 -5 -10 -10 -5 -10 6 0 16 4 24 9 11 7 9 10 -8 16 -12 4 -38 20 -57
37 -19 17 -34 26 -34 22 0 -16 36 -64 43 -57 4 3 7 4 7 0 0 -21 -21 -12 -39
17 -31 49 -28 111 4 132 43 28 46 38 84 239 10 55 33 171 51 258 l32 158 -26
39 c-38 58 -32 95 22 124 41 23 72 19 179 -19z m2770 -19 c74 -20 115 -48 157
-109 50 -73 72 -163 56 -236 -6 -31 -14 -67 -16 -81 -3 -14 -9 -27 -15 -28 -5
-2 -7 -8 -4 -13 11 -16 -51 -93 -115 -143 -60 -47 -152 -86 -206 -86 -15 0
-24 -6 -24 -15 0 -28 29 -85 43 -85 8 0 22 -9 32 -20 24 -27 11 -65 -30 -88
-16 -9 -32 -19 -35 -22 -8 -8 -75 -30 -91 -30 -8 0 -24 -7 -35 -16 -15 -12
-16 -15 -2 -10 9 3 19 2 21 -2 2 -4 2 -1 0 6 -1 8 4 12 15 11 9 -2 27 2 39 9
14 8 24 9 28 2 3 -5 11 -10 16 -10 6 0 7 5 3 12 -4 7 -3 8 5 4 18 -12 2 -28
-21 -20 -13 4 -18 2 -14 -4 7 -12 -29 -22 -109 -29 -103 -10 -128 -7 -152 22
-28 32 -29 70 -3 113 22 36 22 41 -17 226 -8 39 -23 122 -34 185 -26 149 -24
145 -65 172 -19 13 -37 34 -40 46 -6 21 8 57 31 80 12 12 362 135 450 158 66
17 71 17 132 1z m-1262 -32 c-49 -18 -154 -26 -192 -14 -23 7 -18 9 32 10 33
1 85 5 115 10 82 11 89 10 45 -6z m1305 -843 c0 -5 -7 -14 -15 -21 -13 -10
-15 -9 -15 9 0 12 6 21 15 21 8 0 15 -4 15 -9z m-2363 -109 c14 -18 23 -35 22
-36 -2 -2 -29 -15 -59 -30 -30 -15 -69 -41 -87 -58 l-31 -30 -54 40 c-29 21
-62 49 -73 62 -11 12 -30 26 -42 31 -14 5 -23 17 -23 30 0 14 5 19 14 16 7 -3
50 -9 94 -12 59 -6 88 -4 111 6 17 8 31 17 31 21 0 5 6 8 14 8 7 0 19 7 27 16
12 14 14 13 21 -7 5 -13 20 -38 35 -57z m258 48 c3 -6 -1 -7 -9 -4 -18 7 -21
14 -7 14 6 0 13 -4 16 -10z m-83 -172 c32 -9 41 -9 48 1 12 21 47 -4 60 -44
15 -46 5 -90 -27 -115 -34 -27 -46 -25 -86 10 -19 17 -49 33 -65 36 -26 5 -36
1 -62 -24 -24 -25 -30 -39 -30 -74 0 -25 8 -56 20 -75 20 -34 74 -68 90 -58
18 11 11 31 -15 45 -58 31 -10 83 85 94 81 9 124 0 141 -30 11 -22 10 -27 -14
-52 -21 -22 -27 -38 -27 -73 0 -58 -24 -81 -104 -104 -110 -32 -231 -5 -289
64 -26 32 -67 128 -67 160 0 9 7 42 16 72 12 41 28 66 69 106 30 29 69 56 87
62 47 13 124 13 170 -1z m431 -16 c14 -15 66 -104 114 -197 68 -131 93 -171
109 -173 29 -4 33 9 40 154 7 118 6 127 -14 154 -28 37 -28 44 4 69 29 23 101
29 133 12 10 -6 46 -53 81 -105 34 -53 66 -96 71 -96 4 0 31 38 59 85 60 99
89 125 139 125 73 0 114 -48 76 -90 -14 -16 -15 -32 -5 -145 11 -125 21 -165
40 -165 21 0 9 -49 -16 -69 -34 -27 -147 -30 -182 -5 -26 18 -29 61 -6 78 13
10 14 20 7 57 l-9 44 -26 -40 c-14 -22 -37 -61 -52 -87 -40 -72 -70 -62 -133
46 -36 62 -53 69 -53 23 0 -21 7 -41 20 -52 26 -23 25 -31 -5 -60 -29 -30 -89
-34 -137 -9 -27 14 -35 14 -52 4 -12 -8 -54 -15 -93 -18 -58 -4 -78 -1 -99 13
-23 15 -25 22 -20 53 l5 37 -65 -3 c-62 -4 -65 -5 -50 -21 39 -43 1 -81 -80
-81 -37 0 -59 6 -78 21 -33 26 -33 48 -1 74 29 23 137 264 134 299 -3 38 1 47
26 71 34 35 83 34 118 -3z m1254 5 c8 -8 18 -35 20 -60 5 -39 2 -47 -16 -57
-18 -9 -28 -7 -55 9 -21 13 -50 21 -80 21 -46 0 -46 0 -46 -34 0 -46 13 -52
43 -21 28 31 50 26 67 -16 30 -72 -28 -174 -70 -124 -22 27 -40 18 -40 -20 l0
-35 54 0 c51 0 56 2 86 40 37 47 53 50 76 14 34 -51 10 -134 -46 -168 -23 -13
-57 -16 -179 -16 -148 0 -153 1 -176 25 -30 29 -31 46 -5 70 18 16 20 31 20
154 0 125 -2 137 -20 149 -27 16 -26 57 2 76 32 23 342 17 365 -7z"/>
<path d="M2400 4086 c0 -163 0 -164 67 -151 53 10 100 60 108 117 14 95 -37
167 -125 176 l-50 5 0 -147z"/>
<path d="M920 3038 c0 -8 11 -29 25 -48 33 -44 32 -65 -5 -86 -30 -18 -60 -75
-60 -117 -1 -14 -13 -30 -33 -42 -40 -25 -45 -55 -15 -90 l23 -27 170 1 c159
1 171 3 192 23 13 12 23 33 23 48 0 27 -27 60 -49 60 -8 0 -10 10 -6 33 9 44
-9 84 -45 105 -16 9 -30 24 -30 32 0 9 -7 25 -15 38 -34 48 -175 105 -175 70z
m110 -210 c16 -30 9 -52 -23 -72 -41 -26 -76 47 -41 85 23 25 44 21 64 -13z
m104 16 c20 -20 20 -43 0 -72 -18 -26 -31 -28 -56 -5 -21 19 -23 45 -6 73 15
24 41 26 62 4z"/>
<path d="M974 2815 c-4 -9 -2 -21 4 -27 15 -15 44 -1 40 19 -4 23 -36 29 -44
8z"/>
<path d="M1091 2827 c-13 -17 -5 -47 14 -47 19 0 28 32 12 47 -12 12 -16 12
-26 0z"/>
<path d="M3656 2841 c-3 -5 8 -26 24 -46 17 -21 30 -43 30 -50 0 -6 -17 -25
-37 -42 -35 -28 -63 -85 -63 -128 0 -9 -11 -20 -24 -25 -52 -19 -58 -85 -12
-115 33 -22 286 -33 339 -16 67 22 86 107 29 125 -17 6 -19 13 -14 51 5 50
-13 89 -48 100 -11 3 -20 15 -20 25 0 58 -178 164 -204 121z m104 -203 c24
-26 25 -45 3 -70 -20 -23 -52 -23 -69 0 -19 25 -17 49 6 72 25 25 34 25 60 -2z
m114 6 c31 -30 12 -94 -27 -94 -46 0 -64 55 -30 92 20 22 37 23 57 2z"/>
<path d="M3713 2614 c-3 -8 1 -22 9 -30 13 -13 16 -13 27 -1 14 17 4 47 -15
47 -8 0 -17 -7 -21 -16z"/>
<path d="M3824 2615 c-9 -22 22 -53 37 -38 15 15 7 47 -14 51 -9 2 -20 -4 -23
-13z"/>
<path d="M1879 1757 c-9 -7 -28 -30 -43 -51 -51 -76 -26 -215 46 -252 42 -22
74 -17 112 17 50 44 74 122 58 187 -17 64 -68 112 -119 112 -21 0 -45 -6 -54
-13z"/>
<path d="M2713 1750 c-44 -26 -63 -68 -63 -137 0 -129 105 -210 198 -153 41
25 64 78 64 142 -1 125 -108 204 -199 148z"/>
<path d="M2191 1337 c-8 -10 -7 -14 2 -14 8 0 14 6 14 14 0 7 -1 13 -2 13 -2
0 -8 -6 -14 -13z"/>
<path d="M2715 1220 c-3 -5 1 -10 10 -10 9 0 13 5 10 10 -3 6 -8 10 -10 10 -2
0 -7 -4 -10 -10z"/>
<path d="M1754 4179 c-25 -13 -64 -78 -64 -106 0 -38 32 -113 57 -133 37 -29
76 -25 117 11 26 22 37 41 41 73 8 51 -8 117 -34 140 -24 22 -88 30 -117 15z"/>
<path d="M1810 3760 l-25 -8 28 -1 c15 -1 27 4 27 9 0 6 -1 10 -2 9 -2 -1 -14
-5 -28 -9z"/>
<path d="M1069 4082 c-2 -75 3 -317 7 -321 10 -11 94 40 117 71 47 63 52 170
11 233 -19 28 -36 36 -91 40 -41 3 -43 2 -44 -23z"/>
<path d="M1055 3610 c-3 -5 1 -10 10 -10 9 0 13 5 10 10 -3 6 -8 10 -10 10 -2
0 -7 -4 -10 -10z"/>
<path d="M830 3566 c0 -2 7 -7 16 -10 8 -3 12 -2 9 4 -6 10 -25 14 -25 6z"/>
<path d="M3510 3401 c0 -4 9 -20 20 -34 26 -33 26 -35 -12 -74 -28 -29 -30
-35 -20 -58 10 -22 9 -26 -18 -40 -35 -18 -38 -44 -9 -71 19 -17 36 -19 142
-17 96 2 124 6 138 19 26 23 24 41 -7 69 -22 21 -24 27 -14 40 10 12 9 20 -5
41 -9 15 -26 29 -36 31 -10 3 -19 13 -19 23 0 22 -26 45 -73 65 -40 16 -87 20
-87 6z m101 -142 c9 -18 8 -25 -8 -41 -22 -22 -49 -16 -58 13 -14 43 44 67 66
28z m77 12 c18 -11 11 -51 -10 -65 -14 -8 -22 -7 -35 6 -14 14 -15 22 -5 43
12 26 27 31 50 16z"/>
<path d="M3565 3250 c-3 -6 1 -13 10 -16 19 -8 30 0 20 15 -8 14 -22 14 -30 1z"/>
<path d="M3650 3246 c0 -20 13 -27 30 -15 13 8 13 10 0 19 -21 14 -30 12 -30
-4z"/>
<path d="M2118 2705 c-79 -43 -47 -205 41 -205 94 0 126 161 40 205 -34 18
-47 18 -81 0z m60 -44 c4 -28 -17 -45 -35 -29 -14 11 -17 40 -6 52 14 14 38 0
41 -23z"/>
<path d="M2575 2695 c-21 -20 -25 -34 -25 -83 0 -49 4 -64 25 -86 53 -57 145
-11 145 74 0 97 -87 154 -145 95z m100 -26 c8 -26 -16 -54 -39 -46 -16 6 -22
48 -9 60 14 14 42 6 48 -14z"/>
<path d="M1111 1908 c-21 -69 -42 -188 -36 -199 5 -7 27 -10 61 -7 44 4 58 10
78 33 59 69 39 143 -51 189 -41 21 -40 21 -52 -16z"/>
<path d="M1330 1520 c0 -6 -4 -8 -10 -5 -5 3 -10 1 -10 -4 0 -13 10 -14 29 -2
9 6 10 11 2 15 -6 4 -11 2 -11 -4z"/>
<path d="M1040 1503 c0 -5 17 -9 38 -10 27 -2 33 0 22 7 -18 11 -60 13 -60 3z"/>
<path d="M1268 1503 c6 -2 18 -2 25 0 6 3 1 5 -13 5 -14 0 -19 -2 -12 -5z"/>
<path d="M3563 1938 c-20 -7 -33 -17 -33 -27 1 -25 37 -191 43 -197 11 -12 82
22 114 54 27 27 33 40 33 77 0 57 -7 73 -41 90 -32 17 -69 18 -116 3z"/>
<path d="M1469 1020 c-150 -80 -158 -267 -16 -357 36 -23 52 -27 113 -26 50 1
82 7 111 21 40 21 41 22 45 84 3 35 10 64 16 66 7 2 12 8 12 13 0 11 -147 12
-154 0 -3 -4 6 -13 19 -19 27 -13 34 -56 15 -93 -24 -44 -141 -4 -174 60 -28
54 -29 102 -4 150 42 82 134 104 195 47 32 -30 33 -30 58 -12 30 21 10 68 -30
73 -119 14 -171 13 -206 -7z"/>
<path d="M1980 1021 c-5 -11 -10 -30 -10 -42 0 -37 -100 -262 -131 -294 -16
-17 -29 -34 -29 -37 0 -11 52 -19 81 -13 27 6 42 35 19 35 -15 0 -12 50 3 55
6 2 52 6 100 8 86 5 89 4 99 -19 9 -19 8 -28 -7 -44 -17 -18 -17 -20 0 -26 60
-23 189 1 143 27 -9 5 -51 75 -93 157 -42 81 -88 162 -101 180 -28 36 -58 41
-74 13z m58 -138 c11 -16 24 -45 30 -66 10 -34 9 -37 -12 -43 -13 -3 -40 -4
-62 -2 -38 3 -39 4 -38 39 1 35 36 99 54 99 5 0 17 -12 28 -27z"/>
<path d="M1992 848 c-20 -20 -14 -38 13 -38 26 0 29 7 19 34 -7 19 -16 20 -32
4z"/>
<path d="M2357 1034 c-3 -4 0 -16 8 -28 30 -41 14 -299 -20 -336 -9 -10 -13
-20 -8 -23 18 -12 79 -17 92 -8 12 8 12 13 -3 37 -23 33 -18 126 7 151 15 15
18 15 37 -2 12 -11 37 -47 56 -81 32 -58 60 -92 68 -83 1 2 19 33 38 69 20 36
51 79 68 95 29 28 32 29 44 12 7 -9 16 -47 20 -84 6 -55 4 -70 -8 -79 -9 -6
-16 -16 -16 -21 0 -25 105 -31 135 -9 18 13 19 16 3 33 -15 17 -29 88 -44 223
-8 72 -7 99 7 116 12 15 1 24 -32 24 -31 0 -50 -22 -132 -150 -64 -100 -63
-101 -191 83 -44 63 -49 67 -85 67 -21 0 -41 -3 -44 -6z"/>
<path d="M2998 1017 c21 -22 22 -32 22 -175 0 -144 -1 -152 -22 -166 -42 -30
-9 -38 148 -37 165 2 178 6 190 69 8 39 -4 41 -36 7 -21 -22 -32 -25 -95 -25
-42 0 -76 5 -83 12 -7 7 -12 36 -12 65 0 49 2 53 27 59 14 4 39 2 55 -4 27
-10 28 -9 28 24 0 38 -1 39 -46 22 -51 -18 -66 0 -62 76 l3 61 75 -1 c41 0 86
-4 100 -9 24 -8 25 -8 9 16 -16 23 -20 24 -170 27 l-153 3 22 -24z"/>
<path d="M706 3943 c-11 -11 -6 -103 5 -103 5 0 8 -4 4 -9 -8 -15 13 -24 41
-17 15 4 24 14 24 26 0 11 -4 20 -8 20 -12 0 -11 34 0 41 5 3 -6 15 -25 27
-20 11 -38 18 -41 15z"/>
<path d="M4040 3916 c-34 -13 -34 -13 -12 -25 12 -7 20 -16 17 -20 -3 -5 2
-12 10 -15 16 -6 19 -1 29 47 7 30 5 31 -44 13z"/>
<path d="M700 3388 c0 -54 21 -71 39 -30 11 22 9 28 -13 51 l-26 26 0 -47z"/>
<path d="M4065 3404 c-16 -14 -22 -23 -13 -20 12 3 15 1 12 -9 -4 -9 1 -13 13
-11 18 3 27 24 21 51 -2 12 -10 9 -33 -11z"/>
<path d="M600 1690 c1 -21 36 -96 49 -104 17 -11 13 5 -19 64 -17 30 -30 48
-30 40z"/>
<path d="M4155 1549 c-4 -6 -5 -12 -2 -15 2 -3 7 2 10 11 7 17 1 20 -8 4z"/>
<path d="M4076 1388 c-9 -17 -16 -34 -16 -37 0 -8 26 32 33 52 10 28 0 19 -17
-15z"/>
<path d="M3987 1254 c-15 -20 -15 -24 -3 -24 8 0 18 9 21 21 10 29 3 31 -18 3z"/>
<path d="M3966 1208 c3 -5 10 -6 15 -3 13 9 11 12 -6 12 -8 0 -12 -4 -9 -9z"/>
<path d="M3935 1176 c-71 -83 -107 -128 -104 -131 11 -11 124 117 117 134 -1
5 -7 4 -13 -3z"/>
<path d="M583 1030 c1 -19 6 -38 12 -42 6 -5 6 -8 -2 -8 -8 0 -13 -15 -13 -40
0 -42 17 -90 32 -90 5 0 6 -6 3 -12 -4 -7 1 -4 9 6 9 11 16 14 16 8 0 -7 8
-12 18 -12 10 0 26 -6 37 -14 11 -7 25 -15 30 -16 43 -10 94 -50 65 -50 -10 0
-10 -3 0 -15 25 -31 182 -8 203 30 4 8 14 12 21 9 24 -9 41 61 28 111 -8 30
-9 30 -83 30 -58 0 -79 4 -93 18 -10 9 -28 17 -42 17 -16 0 -24 -5 -23 -17 0
-11 3 -13 6 -5 2 6 14 12 26 12 21 -1 21 -1 -3 -14 -21 -12 -27 -12 -44 0 -27
18 -46 18 -46 -2 0 -12 -10 -14 -52 -12 -44 2 -53 6 -51 21 0 12 -4 16 -13 13
-8 -3 -14 -1 -14 4 0 6 4 10 8 10 4 0 8 8 8 19 0 12 -5 17 -15 13 -11 -4 -13
0 -9 16 4 12 2 20 -2 17 -5 -3 -11 3 -13 12 -3 10 -5 2 -4 -17z"/>
<path d="M3840 999 c-71 -29 -103 -98 -76 -162 42 -103 195 -99 234 5 13 34
12 41 -8 83 -33 68 -93 98 -150 74z m81 -39 c23 -13 49 -61 49 -93 0 -43 -68
-94 -107 -80 -68 24 -85 102 -34 154 31 30 59 36 92 19z"/>
<path d="M3846 934 c-12 -11 -14 -27 -10 -57 9 -63 11 -67 41 -67 45 0 57 14
58 65 0 36 -4 50 -19 61 -27 18 -51 18 -70 -2z m54 -35 c0 -5 -7 -9 -15 -9
-15 0 -20 12 -9 23 8 8 24 -1 24 -14z m-5 -49 c3 -5 1 -10 -4 -10 -6 0 -11 5
-11 10 0 6 2 10 4 10 3 0 8 -4 11 -10z"/>
<path d="M1113 983 c-7 -3 -13 -12 -13 -20 0 -13 2 -14 17 -2 10 8 6 0 -7 -17
-14 -17 -29 -29 -34 -26 -5 3 -6 -3 -3 -12 4 -10 7 -22 7 -27 0 -5 4 -9 9 -9
5 0 7 8 4 19 -3 10 0 22 6 25 6 4 11 2 11 -5 0 -10 3 -10 11 -2 8 8 16 6 30
-8 23 -23 38 -24 46 -3 7 19 -66 94 -84 87z"/>
<path d="M3702 970 c-38 -23 -51 -48 -31 -61 19 -12 29 -11 29 2 0 6 9 24 21
41 27 37 21 42 -19 18z"/>
<path d="M968 953 c7 -3 16 -2 19 1 4 3 -2 6 -13 5 -11 0 -14 -3 -6 -6z"/>
<path d="M1018 943 c7 -3 16 -2 19 1 4 3 -2 6 -13 5 -11 0 -14 -3 -6 -6z"/>
<path d="M1051 900 c0 -8 4 -24 9 -35 5 -13 9 -14 9 -5 0 8 -4 24 -9 35 -5 13
-9 14 -9 5z"/>
<path d="M3490 809 c0 -5 5 -7 10 -4 6 3 10 8 10 11 0 2 -4 4 -10 4 -5 0 -10
-5 -10 -11z"/>
<path d="M3553 793 c-10 -16 -13 -16 -22 -3 -9 13 -12 13 -23 1 -8 -9 -9 -11
-1 -7 6 3 14 2 18 -4 3 -5 1 -10 -4 -10 -6 0 -11 -7 -11 -15 0 -21 17 -19 30
5 6 10 16 18 23 16 6 -1 8 -1 4 2 -4 2 -3 10 4 18 6 8 7 14 3 14 -5 0 -14 -8
-21 -17z"/>
<path d="M1250 524 c0 -21 28 -112 43 -140 24 -47 90 -99 148 -117 80 -26 192
-22 258 8 51 24 57 25 90 11 39 -15 100 -13 143 5 15 6 25 15 22 20 -3 5 2 6
10 3 9 -3 23 6 37 25 13 17 26 31 30 31 4 0 16 -17 26 -37 31 -60 47 -64 233
-61 186 4 228 16 264 79 l19 32 19 -27 c33 -44 102 -78 171 -83 61 -5 103 6
149 39 14 10 21 9 40 -9 33 -31 153 -56 247 -52 66 3 85 9 127 35 27 17 48 36
46 43 -1 7 2 10 7 6 14 -8 38 31 56 91 8 27 15 50 15 52 0 2 -18 -12 -39 -30
-66 -57 -115 -68 -291 -68 -126 0 -160 3 -178 16 -21 14 -25 14 -47 0 -34 -22
-181 -22 -213 -1 -16 12 -30 14 -55 7 -19 -5 -42 -5 -57 0 -17 6 -35 4 -61 -7
-28 -13 -55 -15 -120 -11 -114 7 -114 7 -196 0 -63 -5 -78 -3 -114 15 l-41 22
-42 -21 c-54 -26 -189 -29 -224 -4 -21 14 -26 14 -56 0 -25 -12 -64 -16 -139
-16 -139 0 -201 22 -274 98 -29 30 -53 51 -53 46z"/>
</g>
</svg>
